<svg width="267" height="24" fill="none" xmlns="http://www.w3.org/2000/svg"><path d="M3.064 7.51A9.996 9.996 0 0112 2c2.695 0 4.959.99 6.69 2.605l-2.867 2.868C14.786 6.482 13.468 5.977 12 5.977c-2.605 0-4.81 1.76-5.595 4.123-.2.6-.314 1.24-.314 1.9 0 .66.114 1.3.314 1.9.786 2.364 2.99 4.123 5.595 4.123 1.345 0 2.49-.355 3.386-.955a4.601 4.601 0 001.996-3.018H12v-3.868h9.418c.118.654.182 1.336.182 2.045 0 3.046-1.09 5.61-2.982 7.35C16.964 21.105 14.7 22 12 22A9.998 9.998 0 013.064 7.51zm40.638-1.578h-8.316V19h2.134v-5.17h5.148v-1.87H37.52V7.846h6.006l.176-1.914zm2.855-.836c-.704 0-1.232.506-1.232 1.166 0 .682.528 1.21 1.232 1.21.682 0 1.188-.528 1.188-1.21 0-.66-.506-1.166-1.188-1.166zm1.012 4.18l-2.068.088V19h2.068V9.276zM58.725 19v-6.38c0-2.398-1.32-3.454-3.388-3.454-1.122 0-2.222.352-3.278 1.144V9.276l-2.068.088V19h2.068v-7.106c.792-.528 1.738-.902 2.596-.902 1.276 0 2.002.638 2.002 2.068V19h2.068zm3.473-13.904c-.704 0-1.232.506-1.232 1.166 0 .682.528 1.21 1.232 1.21.682 0 1.188-.528 1.188-1.21 0-.66-.506-1.166-1.188-1.166zm1.012 4.18l-2.068.088V19h2.068V9.276zm8.692.308c-.66-.264-1.606-.418-2.75-.418-2.486 0-3.85 1.32-3.85 2.882 0 3.168 4.906 2.662 4.906 4.246 0 .77-.572 1.166-1.826 1.166-1.1 0-2.332-.352-3.058-.814l-.154 1.782c.726.44 2.024.726 3.234.726 2.794 0 3.938-1.342 3.938-2.948 0-3.19-4.928-2.684-4.928-4.246 0-.66.594-1.1 1.716-1.1.946 0 1.848.198 2.464.484l.308-1.76zM83.025 19v-6.38c0-2.398-1.32-3.454-3.388-3.454-1.122 0-2.266.352-3.322 1.144V5.052l-2.068.11V19h2.068v-7.106c.792-.528 1.738-.902 2.596-.902 1.276 0 2.046.638 2.046 2.068V19h2.068zM98.007 6.482c-.902-.462-2.376-.704-3.696-.704-3.036 0-4.818 1.562-4.818 3.806 0 4.51 6.886 3.168 6.886 5.874 0 1.166-.902 1.804-2.838 1.804-1.452 0-3.014-.44-3.872-.946l-.22 2.002c.902.484 2.442.836 4.026.836 3.344 0 5.082-1.496 5.082-3.894 0-4.51-6.864-3.234-6.864-5.852 0-1.1.946-1.738 2.662-1.738 1.1 0 2.508.286 3.234.704l.418-1.892zm3.486-1.386c-.704 0-1.232.506-1.232 1.166 0 .682.528 1.21 1.232 1.21.682 0 1.188-.528 1.188-1.21 0-.66-.506-1.166-1.188-1.166zm1.012 4.18l-2.068.088V19h2.068V9.276zm10.914-.22l-3.498.33c-.462-.154-.968-.22-1.54-.22-2.464 0-4.026 1.386-4.026 3.388 0 1.694 1.144 3.036 3.08 3.3l-1.716 1.694v1.518c.814-.154 2.156-.264 3.19-.264 2.002 0 2.75.352 2.75 1.298 0 .836-.66 1.43-2.882 1.43-1.826 0-3.784-.528-4.752-1.144l-.154 1.804c1.034.638 2.904 1.034 4.796 1.034 3.476 0 4.906-1.32 4.906-3.168 0-1.914-1.43-2.882-4.202-2.882-.462 0-1.496.066-1.98.132l1.342-1.386c2.288-.132 3.696-1.452 3.696-3.366 0-.704-.308-1.364-.792-1.826h1.738l.044-1.672zm-2.904 3.498c0 1.144-.814 1.936-2.134 1.936-1.32 0-2.112-.814-2.112-1.936 0-1.144.792-1.936 2.112-1.936s2.134.814 2.134 1.936zm13.2 6.446v-6.38c0-2.398-1.32-3.454-3.388-3.454-1.122 0-2.222.352-3.278 1.144V9.276l-2.068.088V19h2.068v-7.106c.792-.528 1.738-.902 2.596-.902 1.276 0 2.002.638 2.002 2.068V19h2.068zm17.777-13.068h-2.068v7.414c0 2.42-1.056 3.85-3.344 3.85-2.266 0-3.344-1.43-3.344-3.85V5.932h-2.134v7.59c0 3.63 2.024 5.632 5.434 5.632 3.432 0 5.456-2.002 5.456-5.632v-7.59zm11.735 8.14c0-3.102-2.002-4.906-4.51-4.906-1.078 0-1.98.308-2.728.88v-.77l-2.068.088V23.07h2.068v-4.334c.616.286 1.364.418 2.266.418 2.904 0 4.972-2.134 4.972-5.082zm-2.156.044c0 2.024-1.342 3.256-3.146 3.256-.726 0-1.452-.154-1.936-.374v-5.346c.594-.462 1.364-.704 2.156-.704 1.76 0 2.926 1.188 2.926 3.168zm26.293-8.184h-2.156l-2.574 9.13c-.154.572-.264.99-.33 1.452h-.11c-.066-.462-.198-.902-.352-1.452l-2.574-8.184h-2.398l-2.574 8.184c-.154.55-.264.99-.33 1.452h-.11c-.066-.462-.176-.902-.33-1.452l-2.596-9.13h-2.244L162.58 19h2.398l2.618-8.074c.154-.55.308-1.144.374-1.606h.088c.066.462.22 1.056.396 1.606L171.072 19h2.398l3.894-13.068zm2.804-.836c-.704 0-1.232.506-1.232 1.166 0 .682.528 1.21 1.232 1.21.682 0 1.188-.528 1.188-1.21 0-.66-.506-1.166-1.188-1.166zm1.012 4.18l-2.068.088V19h2.068V9.276zm7.923.044h-2.97V6.746l-2.046.462V9.32h-1.364v1.782h1.364v4.928c0 2.024 1.034 3.124 3.168 3.124.814 0 1.496-.176 1.958-.506l-.11-1.76a2.394 2.394 0 01-1.408.462c-.968 0-1.562-.462-1.562-1.562v-4.686h2.816l.154-1.782zM199.685 19v-6.38c0-2.398-1.32-3.454-3.388-3.454-1.122 0-2.266.352-3.322 1.144V5.052l-2.068.11V19h2.068v-7.106c.792-.528 1.738-.902 2.596-.902 1.276 0 2.046.638 2.046 2.068V19h2.068zm17.49-12.122c-1.1-.748-2.486-1.1-4.4-1.1-4.004 0-6.842 2.772-6.842 6.688 0 3.894 2.816 6.688 7.062 6.688 1.87 0 3.476-.396 4.576-1.078v-5.478l-2.134.066v4.092c-.55.242-1.364.418-2.354.418-2.926 0-4.95-1.98-4.95-4.708 0-2.926 2.024-4.708 4.774-4.708 1.452 0 2.728.418 3.564 1.078l.704-1.958zm12.457 7.282c0-2.926-2.2-4.994-5.126-4.994-2.904 0-5.126 2.068-5.126 4.994 0 2.926 2.222 4.994 5.126 4.994 2.926 0 5.126-2.068 5.126-4.994zm-2.134 0c0 1.892-1.298 3.19-2.992 3.19-1.672 0-2.992-1.298-2.992-3.19s1.298-3.19 2.992-3.19c1.672 0 2.992 1.298 2.992 3.19zm13.434 0c0-2.926-2.2-4.994-5.126-4.994-2.904 0-5.126 2.068-5.126 4.994 0 2.926 2.222 4.994 5.126 4.994 2.926 0 5.126-2.068 5.126-4.994zm-2.134 0c0 1.892-1.298 3.19-2.992 3.19-1.672 0-2.992-1.298-2.992-3.19s1.298-3.19 2.992-3.19c1.672 0 2.992 1.298 2.992 3.19zm12.357-5.104l-3.498.33c-.462-.154-.968-.22-1.54-.22-2.464 0-4.026 1.386-4.026 3.388 0 1.694 1.144 3.036 3.08 3.3l-1.716 1.694v1.518c.814-.154 2.156-.264 3.19-.264 2.002 0 2.75.352 2.75 1.298 0 .836-.66 1.43-2.882 1.43-1.826 0-3.784-.528-4.752-1.144l-.154 1.804c1.034.638 2.904 1.034 4.796 1.034 3.476 0 4.906-1.32 4.906-3.168 0-1.914-1.43-2.882-4.202-2.882-.462 0-1.496.066-1.98.132l1.342-1.386c2.288-.132 3.696-1.452 3.696-3.366 0-.704-.308-1.364-.792-1.826h1.738l.044-1.672zm-2.904 3.498c0 1.144-.814 1.936-2.134 1.936-1.32 0-2.112-.814-2.112-1.936 0-1.144.792-1.936 2.112-1.936s2.134.814 2.134 1.936zm6.535-7.502l-2.068.11V19h2.068V5.052zm10.628 9.592c.066-.418.088-.946.088-1.32 0-2.552-1.782-4.158-4.246-4.158-2.706 0-4.73 1.958-4.73 4.906 0 3.124 2.112 5.082 5.61 5.082 1.166 0 2.618-.33 3.366-.88l-.088-1.826c-.77.55-2.046.902-3.146.902-2.046 0-3.366-1.034-3.586-2.706h6.732zm-4.158-3.96c1.386 0 2.31.968 2.31 2.354 0 .11 0 .264-.022.352h-4.928c.154-1.65 1.188-2.706 2.64-2.706z" fill="#fff"/></svg>